<?xml version="1.0" encoding="UTF-8" standalone="no" ?>
<!DOCTYPE svg PUBLIC "-//W3C//DTD SVG 1.1//EN" "http://www.w3.org/Graphics/SVG/1.1/DTD/svg11.dtd">
<svg xmlns="http://www.w3.org/2000/svg" xmlns:xlink="http://www.w3.org/1999/xlink" version="1.1" width="1024" height="1024" viewBox="0 0 1024 1024" xml:space="preserve">
<desc>Created with Fabric.js 5.3.0</desc>
<defs>
</defs>
<g transform="matrix(0.5935634391 -0.5731975503 3.1599314614 3.2722048178 443.7252381601 577.3383019635)" id="gXibA0Pvxr-afwYh5_qcW"  >
<path style="stroke: rgb(127,125,161); stroke-width: 0; stroke-dasharray: none; stroke-linecap: butt; stroke-dashoffset: 0; stroke-linejoin: miter; stroke-miterlimit: 4; fill: rgb(87,63,116); fill-rule: nonzero; opacity: 1;"  transform=" translate(0, 0)" d="M -28.24859 -28.24859 L 28.24859 -28.24859 L 28.24859 28.24859 L -28.24859 28.24859 z" stroke-linecap="round" />
</g>
<g transform="matrix(0.5935634391 -0.5731975503 3.1599314614 3.2722048178 595.0123434438 431.4922319162)" id="nrCKiNkU9qEgp_mw6WwwB"  >
<path style="stroke: rgb(127,125,161); stroke-width: 0; stroke-dasharray: none; stroke-linecap: butt; stroke-dashoffset: 0; stroke-linejoin: miter; stroke-miterlimit: 4; fill: rgb(87,63,116); fill-rule: nonzero; opacity: 1;"  transform=" translate(0, 0)" d="M -28.24859 -28.24859 L 28.24859 -28.24859 L 28.24859 28.24859 L -28.24859 28.24859 z" stroke-linecap="round" />
</g>
<g transform="matrix(0.5731975503 0.5935634391 -3.2722048178 3.1599314614 591.0647357236 580.3103209644)" id="OOQ2R4-fZiFhVLGpmlXzx"  >
<path style="stroke: rgb(127,125,161); stroke-width: 0; stroke-dasharray: none; stroke-linecap: butt; stroke-dashoffset: 0; stroke-linejoin: miter; stroke-miterlimit: 4; fill: rgb(87,63,116); fill-rule: nonzero; opacity: 1;"  transform=" translate(0, 0)" d="M -28.24859 -28.24859 L 28.24859 -28.24859 L 28.24859 28.24859 L -28.24859 28.24859 z" stroke-linecap="round" />
</g>
<g transform="matrix(0.5731975503 0.5935634391 -3.2722048178 3.1599314614 446.3215036477 428.8959755474)" id="ddPYzOASJabEVKw9FgwKR"  >
<path style="stroke: rgb(127,125,161); stroke-width: 0; stroke-dasharray: none; stroke-linecap: butt; stroke-dashoffset: 0; stroke-linejoin: miter; stroke-miterlimit: 4; fill: rgb(87,63,116); fill-rule: nonzero; opacity: 1;"  transform=" translate(0, 0)" d="M -28.24859 -28.24859 L 28.24859 -28.24859 L 28.24859 28.24859 L -28.24859 28.24859 z" stroke-linecap="round" />
</g>
<g transform="matrix(0.1550261097 0 0 0.1550261097 650.3128738524 237.7983218321)" id="L5Y4OEYLqeEZA6ATPLgoz"  >
<path style="stroke: rgb(110,48,220); stroke-width: 0; stroke-dasharray: none; stroke-linecap: butt; stroke-dashoffset: 0; stroke-linejoin: miter; stroke-miterlimit: 4; fill: rgb(244,162,40); fill-rule: nonzero; opacity: 1;"  transform=" translate(0, 0)" d="M 0 -67.36842 C 37.18737 -67.36842 67.36842 -37.18737 67.36842 0 C 67.36842 37.18737 37.18737 67.36842 0 67.36842 C -37.18737 67.36842 -67.36842 37.18737 -67.36842 0 C -67.36842 -37.18737 -37.18737 -67.36842 0 -67.36842 z" stroke-linecap="round" />
</g>
<g transform="matrix(0.1550261097 0 0 0.1550261097 815.1646808232 376.9983216716)" id="2dbp_V1_1helewL3XoNXC"  >
<path style="stroke: rgb(110,48,220); stroke-width: 0; stroke-dasharray: none; stroke-linecap: butt; stroke-dashoffset: 0; stroke-linejoin: miter; stroke-miterlimit: 4; fill: rgb(244,162,40); fill-rule: nonzero; opacity: 1;"  transform=" translate(0, 0)" d="M 0 -67.36842 C 37.18737 -67.36842 67.36842 -37.18737 67.36842 0 C 67.36842 37.18737 37.18737 67.36842 0 67.36842 C -37.18737 67.36842 -67.36842 37.18737 -67.36842 0 C -67.36842 -37.18737 -37.18737 -67.36842 0 -67.36842 z" stroke-linecap="round" />
</g>
<g transform="matrix(0.8836488251 0 0 0.8836488251 766.0785197129 254.9449688676)" id="dYhiIemNKAmTBBxYa2VTd"  >
<linearGradient id="SVGID_107_1" gradientUnits="userSpaceOnUse" gradientTransform="matrix(1 0 0 1 -67.36842 -67.36842)"  x1="67.36842105263162" y1="1.4210854715202004e-14" x2="67.36842105263162" y2="134.73684210526318">
<stop offset="0%" style="stop-color:#FDD344;stop-opacity: 1"/>
<stop offset="100%" style="stop-color:#F4A228;stop-opacity: 1"/>
</linearGradient>
<path style="stroke: rgb(110,48,220); stroke-width: 0; stroke-dasharray: none; stroke-linecap: butt; stroke-dashoffset: 0; stroke-linejoin: miter; stroke-miterlimit: 4; fill: url(#SVGID_107_1); fill-rule: nonzero; opacity: 1;"  transform=" translate(0, 0)" d="M 0 -67.36842 C 37.18737 -67.36842 67.36842 -37.18737 67.36842 0 C 67.36842 37.18737 37.18737 67.36842 0 67.36842 C -37.18737 67.36842 -67.36842 37.18737 -67.36842 0 C -67.36842 -37.18737 -37.18737 -67.36842 0 -67.36842 z" stroke-linecap="round" />
</g>
<g transform="matrix(0.8836488251 0 0 0.8836488251 276.3260522956 254.9449688653)" id="QywRjvC1iLf9hKY8kWIpX"  >
<linearGradient id="SVGID_507_3" gradientUnits="userSpaceOnUse" gradientTransform="matrix(1 0 0 1 -67.36842 -67.36842)"  x1="67.36842105263162" y1="1.4210854715202004e-14" x2="67.36842" y2="134.7368400000001">
<stop offset="0%" style="stop-color:#FE8B7D;stop-opacity: 1"/>
<stop offset="100%" style="stop-color:#EE518A;stop-opacity: 1"/>
</linearGradient>
<path style="stroke: rgb(110,48,220); stroke-width: 0; stroke-dasharray: none; stroke-linecap: butt; stroke-dashoffset: 0; stroke-linejoin: miter; stroke-miterlimit: 4; fill: url(#SVGID_507_3); fill-rule: nonzero; opacity: 1;"  transform=" translate(0, 0)" d="M 0 -67.36842 C 37.18737 -67.36842 67.36842 -37.18737 67.36842 0 C 67.36842 37.18737 37.18737 67.36842 0 67.36842 C -37.18737 67.36842 -67.36842 37.18737 -67.36842 0 C -67.36842 -37.18737 -37.18737 -67.36842 0 -67.36842 z" stroke-linecap="round" />
</g>
<g transform="matrix(0.1550261097 0 0 0.1550261097 231.1359952397 376.9983218321)" id="Vu87qnmXm-XH6exBov1Um"  >
<path style="stroke: rgb(110,48,220); stroke-width: 0; stroke-dasharray: none; stroke-linecap: butt; stroke-dashoffset: 0; stroke-linejoin: miter; stroke-miterlimit: 4; fill: rgb(238,81,138); fill-rule: nonzero; opacity: 1;"  transform=" translate(0, 0)" d="M 0 -67.36842 C 37.18737 -67.36842 67.36842 -37.18737 67.36842 0 C 67.36842 37.18737 37.18737 67.36842 0 67.36842 C -37.18737 67.36842 -67.36842 37.18737 -67.36842 0 C -67.36842 -37.18737 -37.18737 -67.36842 0 -67.36842 z" stroke-linecap="round" />
</g>
<g transform="matrix(0.1550261097 0 0 0.1550261097 231.1359954002 629.9983218321)" id="rrF2JqpVjsKzZUOvWn_8l"  >
<path style="stroke: rgb(110,48,220); stroke-width: 0; stroke-dasharray: none; stroke-linecap: butt; stroke-dashoffset: 0; stroke-linejoin: miter; stroke-miterlimit: 4; fill: rgb(4,104,181); fill-rule: nonzero; opacity: 1;"  transform=" translate(0, 0)" d="M 0 -67.36842 C 37.18737 -67.36842 67.36842 -37.18737 67.36842 0 C 67.36842 37.18737 37.18737 67.36842 0 67.36842 C -37.18737 67.36842 -67.36842 37.18737 -67.36842 0 C -67.36842 -37.18737 -37.18737 -67.36842 0 -67.36842 z" stroke-linecap="round" />
</g>
<g transform="matrix(0.1550261097 0 0 0.1550261097 392.3359952397 767.4983218321)" id="bqacdFpvWb44ETaP_QV2L"  >
<path style="stroke: rgb(110,48,220); stroke-width: 0; stroke-dasharray: none; stroke-linecap: butt; stroke-dashoffset: 0; stroke-linejoin: miter; stroke-miterlimit: 4; fill: rgb(4,104,181); fill-rule: nonzero; opacity: 1;"  transform=" translate(0, 0)" d="M 0 -67.36842 C 37.18737 -67.36842 67.36842 -37.18737 67.36842 0 C 67.36842 37.18737 37.18737 67.36842 0 67.36842 C -37.18737 67.36842 -67.36842 37.18737 -67.36842 0 C -67.36842 -37.18737 -37.18737 -67.36842 0 -67.36842 z" stroke-linecap="round" />
</g>
<g transform="matrix(0.1550261097 0 0 0.1550261097 650.3128738524 767.4983218321)" id="UgxuMdzfYtMI0tRTfTGz-"  >
<path style="stroke: rgb(110,48,220); stroke-width: 0; stroke-dasharray: none; stroke-linecap: butt; stroke-dashoffset: 0; stroke-linejoin: miter; stroke-miterlimit: 4; fill: rgb(101,61,169); fill-rule: nonzero; opacity: 1;"  transform=" translate(0, 0)" d="M 0 -67.36842 C 37.18737 -67.36842 67.36842 -37.18737 67.36842 0 C 67.36842 37.18737 37.18737 67.36842 0 67.36842 C -37.18737 67.36842 -67.36842 37.18737 -67.36842 0 C -67.36842 -37.18737 -37.18737 -67.36842 0 -67.36842 z" stroke-linecap="round" />
</g>
<g transform="matrix(0.1550261097 0 0 0.1550261097 815.1646808232 629.9983218321)" id="DlHkyJsJANvNwCmvKn7Ab"  >
<path style="stroke: rgb(110,48,220); stroke-width: 0; stroke-dasharray: none; stroke-linecap: butt; stroke-dashoffset: 0; stroke-linejoin: miter; stroke-miterlimit: 4; fill: rgb(101,61,169); fill-rule: nonzero; opacity: 1;"  transform=" translate(0, 0)" d="M 0 -67.36842 C 37.18737 -67.36842 67.36842 -37.18737 67.36842 0 C 67.36842 37.18737 37.18737 67.36842 0 67.36842 C -37.18737 67.36842 -67.36842 37.18737 -67.36842 0 C -67.36842 -37.18737 -37.18737 -67.36842 0 -67.36842 z" stroke-linecap="round" />
</g>
<g transform="matrix(0.1550261097 0 0 0.1550261097 392.3359952397 237.7983218321)" id="24Mi-F6Sj3b55xFuPJk4H"  >
<path style="stroke: rgb(110,48,220); stroke-width: 0; stroke-dasharray: none; stroke-linecap: butt; stroke-dashoffset: 0; stroke-linejoin: miter; stroke-miterlimit: 4; fill: rgb(238,81,138); fill-rule: nonzero; opacity: 1;"  transform=" translate(0, 0)" d="M 0 -67.36842 C 37.18737 -67.36842 67.36842 -37.18737 67.36842 0 C 67.36842 37.18737 37.18737 67.36842 0 67.36842 C -37.18737 67.36842 -67.36842 37.18737 -67.36842 0 C -67.36842 -37.18737 -37.18737 -67.36842 0 -67.36842 z" stroke-linecap="round" />
</g>
<g transform="matrix(0.8836488251 0 0 0.8836488251 275.3260522956 744.8712846571)" id="Oabnug2f00L8-vodj3h4J"  >
<linearGradient id="SVGID_15" gradientUnits="userSpaceOnUse" gradientTransform="matrix(1 0 0 1 -67.36842 -67.36842)"  x1="67.36842105263162" y1="1.4210854715202004e-14" x2="67.36842105263162" y2="134.73684210526318">
<stop offset="0%" style="stop-color:#00C1BC;stop-opacity: 1"/>
<stop offset="100%" style="stop-color:#00C1BC;stop-opacity: 1"/>
</linearGradient>
<path style="stroke: rgb(110,48,220); stroke-width: 0; stroke-dasharray: none; stroke-linecap: butt; stroke-dashoffset: 0; stroke-linejoin: miter; stroke-miterlimit: 4; fill: url(#SVGID_15); fill-rule: nonzero; opacity: 1;"  transform=" translate(0, 0)" d="M 0 -67.36842 C 37.18737 -67.36842 67.36842 -37.18737 67.36842 0 C 67.36842 37.18737 37.18737 67.36842 0 67.36842 C -37.18737 67.36842 -67.36842 37.18737 -67.36842 0 C -67.36842 -37.18737 -37.18737 -67.36842 0 -67.36842 z" stroke-linecap="round" />
</g>
<g transform="matrix(0.8836488251 0 0 0.8836488251 766.0785197152 744.8712846571)" id="6ZIkQU3dKtMdMULk3zCCm"  >
<linearGradient id="SVGID_623_7" gradientUnits="userSpaceOnUse" gradientTransform="matrix(1 0 0 1 -67.36842 -67.36842)"  x1="67.36842105263162" y1="1.4210854715202004e-14" x2="67.36842105263162" y2="134.73684210526318">
<stop offset="0%" style="stop-color:#9B82C7;stop-opacity: 1"/>
<stop offset="100%" style="stop-color:#653DA9;stop-opacity: 1"/>
</linearGradient>
<path style="stroke: rgb(110,48,220); stroke-width: 0; stroke-dasharray: none; stroke-linecap: butt; stroke-dashoffset: 0; stroke-linejoin: miter; stroke-miterlimit: 4; fill: url(#SVGID_623_7); fill-rule: nonzero; opacity: 1;"  transform=" translate(0, 0)" d="M 0 -67.36842 C 37.18737 -67.36842 67.36842 -37.18737 67.36842 0 C 67.36842 37.18737 37.18737 67.36842 0 67.36842 C -37.18737 67.36842 -67.36842 37.18737 -67.36842 0 C -67.36842 -37.18737 -37.18737 -67.36842 0 -67.36842 z" stroke-linecap="round" />
</g>
<g transform="matrix(0.7669770892 -0.7406611656 2.5182275666 2.6077009823 612.6045029297 340.2414448154)" id="0w1Q29sS_2F1H_PjJLqvA"  >
<linearGradient id="SVGID_497_8" gradientUnits="userSpaceOnUse" gradientTransform="matrix(1 0 0 1 -50 -50)"  x1="45.104567148257246" y1="0.3165617830001821" x2="46.771135652859286" y2="99.61205373381074">
<stop offset="0%" style="stop-color:#FDD344;stop-opacity: 1"/>
<stop offset="100%" style="stop-color:#F4A228;stop-opacity: 1"/>
</linearGradient>
<path style="stroke: rgb(141,28,81); stroke-width: 0; stroke-dasharray: none; stroke-linecap: butt; stroke-dashoffset: 0; stroke-linejoin: miter; stroke-miterlimit: 4; fill: url(#SVGID_497_8); fill-rule: nonzero; opacity: 1;"  transform=" translate(0, 0)" d="M -50 -50 L -0.41199999999999903 -50 L -0.41199999999999903 -50 C 27.42978 -50 50 -43.36165 50 -35.17282 L 50 50 L -50 50 z" stroke-linecap="round" />
</g>
<g transform="matrix(-0.7669770892 0.7406611656 -2.5182275666 -2.6077009823 425.8045029306 668.5414448164)" id="F5dk-l35f5RrrNNbXonA7"  >
<linearGradient id="SVGID_789_9" gradientUnits="userSpaceOnUse" gradientTransform="matrix(1 0 0 1 -50 -50)"  x1="49.06562190596151" y1="1.0770115405356933" x2="46.85667305582865" y2="99.34616334841809">
<stop offset="0%" style="stop-color:#9B82C7;stop-opacity: 1"/>
<stop offset="100%" style="stop-color:#653DA9;stop-opacity: 1"/>
</linearGradient>
<path style="stroke: rgb(141,28,81); stroke-width: 0; stroke-dasharray: none; stroke-linecap: butt; stroke-dashoffset: 0; stroke-linejoin: miter; stroke-miterlimit: 4; fill: url(#SVGID_789_9); fill-rule: nonzero; opacity: 1;"  transform=" translate(0, 0)" d="M -50 -50 L -0.41199999999999903 -50 L -0.41199999999999903 -50 C 27.42978 -50 50 -43.36165 50 -35.17282 L 50 50 L -50 50 z" stroke-linecap="round" />
</g>
<g transform="matrix(0.7406611656 0.7669770892 -2.6077009823 2.5182275666 683.2623775312 597.7835702158)" id="TyMjPYJLEAXseT0M-71ee"  >
<linearGradient id="SVGID_619_10" gradientUnits="userSpaceOnUse" gradientTransform="matrix(1 0 0 1 -50 -50)"  x1="44.30436312874258" y1="0.5096699205827093" x2="49.97114429236285" y2="99.51971896146478">
<stop offset="0%" style="stop-color:#FE8B7D;stop-opacity: 1"/>
<stop offset="100%" style="stop-color:#EE518A;stop-opacity: 1"/>
</linearGradient>
<path style="stroke: rgb(141,28,81); stroke-width: 0; stroke-dasharray: none; stroke-linecap: butt; stroke-dashoffset: 0; stroke-linejoin: miter; stroke-miterlimit: 4; fill: url(#SVGID_619_10); fill-rule: nonzero; opacity: 1;"  transform=" translate(0, 0)" d="M -50 -50 L -0.41199999999999903 -50 L -0.41199999999999903 -50 C 27.42978 -50 50 -43.36165 50 -35.17282 L 50 50 L -50 50 z" stroke-linecap="round" />
</g>
<g transform="matrix(-0.7406611656 -0.7669770892 2.6077009823 -2.5182275666 355.0623775312 411.0835702158)" id="6TevSvsiIDJpN40HHDDm0"  >
<linearGradient id="SVGID_360" gradientUnits="userSpaceOnUse" gradientTransform="matrix(1 0 0 1 -50 -50)"  x1="51.04871239049959" y1="99.99559674178232" x2="45.12886615392142" y2="0.09605324874536336">
<stop offset="0%" style="stop-color:#0468B5;stop-opacity: 1"/>
<stop offset="100%" style="stop-color:#00C1BC;stop-opacity: 1"/>
</linearGradient>
<path style="stroke: rgb(141,28,81); stroke-width: 0; stroke-dasharray: none; stroke-linecap: butt; stroke-dashoffset: 0; stroke-linejoin: miter; stroke-miterlimit: 4; fill: url(#SVGID_360); fill-rule: nonzero; opacity: 1;"  transform=" translate(0, 0)" d="M -50 -50 L -0.41199999999999903 -50 L -0.41199999999999903 -50 C 27.42978 -50 50 -43.36165 50 -35.17282 L 50 50 L -50 50 z" stroke-linecap="round" />
</g>
<g transform="matrix(0.755 0 0 0.755 511.8442701376 757.6419249653)" id="uxvqGY8wDqYs87F-dwg3-"  >
<path style="stroke: rgb(170,164,175); stroke-width: 0; stroke-dasharray: none; stroke-linecap: butt; stroke-dashoffset: 0; stroke-linejoin: miter; stroke-miterlimit: 4; fill: rgb(255,255,255); fill-rule: nonzero; opacity: 0.65;"  transform=" translate(0, 0)" d="M 0 -13.05483 C 7.20627 -13.05483 13.05483 -7.206270000000001 13.05483 0 C 13.05483 7.20627 7.206270000000001 13.05483 0 13.05483 C -7.20627 13.05483 -13.05483 7.206270000000001 -13.05483 0 C -13.05483 -7.20627 -7.206270000000001 -13.05483 0 -13.05483 z" stroke-linecap="round" />
</g>
<g transform="matrix(0.755 0 0 0.755 767.0083390718 517.5159488581)" id="Mk-K_svIrhn1d78uhY1HN"  >
<path style="stroke: rgb(170,164,175); stroke-width: 0; stroke-dasharray: none; stroke-linecap: butt; stroke-dashoffset: 0; stroke-linejoin: miter; stroke-miterlimit: 4; fill: rgb(255,255,255); fill-rule: nonzero; opacity: 0.65;"  transform=" translate(0, 0)" d="M 0 -13.05483 C 7.20627 -13.05483 13.05483 -7.206270000000001 13.05483 0 C 13.05483 7.20627 7.206270000000001 13.05483 0 13.05483 C -7.20627 13.05483 -13.05483 7.206270000000001 -13.05483 0 C -13.05483 -7.20627 -7.206270000000001 -13.05483 0 -13.05483 z" stroke-linecap="round" />
</g>
<g transform="matrix(0.755 0 0 0.755 267.4006667876 496.8031555581)" id="H5vmio7lYG0pSKt5816RB"  >
<path style="stroke: rgb(170,164,175); stroke-width: 0; stroke-dasharray: none; stroke-linecap: butt; stroke-dashoffset: 0; stroke-linejoin: miter; stroke-miterlimit: 4; fill: rgb(255,255,255); fill-rule: nonzero; opacity: 0.65;"  transform=" translate(0, 0)" d="M 0 -13.05483 C 7.20627 -13.05483 13.05483 -7.206270000000001 13.05483 0 C 13.05483 7.20627 7.206270000000001 13.05483 0 13.05483 C -7.20627 13.05483 -13.05483 7.206270000000001 -13.05483 0 C -13.05483 -7.20627 -7.206270000000001 -13.05483 0 -13.05483 z" stroke-linecap="round" />
</g>
<g transform="matrix(0.755 0 0 0.755 522.4804849248 254.9449688653)" id="3N4_U3GPt3OT4PxSWgHrI"  >
<path style="stroke: rgb(170,164,175); stroke-width: 0; stroke-dasharray: none; stroke-linecap: butt; stroke-dashoffset: 0; stroke-linejoin: miter; stroke-miterlimit: 4; fill: rgb(255,255,255); fill-rule: nonzero; opacity: 0.65;"  transform=" translate(0, 0)" d="M 0 -13.05483 C 7.20627 -13.05483 13.05483 -7.206270000000001 13.05483 0 C 13.05483 7.20627 7.206270000000001 13.05483 0 13.05483 C -7.20627 13.05483 -13.05483 7.206270000000001 -13.05483 0 C -13.05483 -7.20627 -7.206270000000001 -13.05483 0 -13.05483 z" stroke-linecap="round" />
</g>
</svg>